<?xml version="1.0" encoding="UTF-8" standalone="no"?>
<!-- Created with Inkscape (http://www.inkscape.org/) -->

<svg
   xmlns:dc="http://purl.org/dc/elements/1.1/"
   xmlns:cc="http://creativecommons.org/ns#"
   xmlns:rdf="http://www.w3.org/1999/02/22-rdf-syntax-ns#"
   xmlns:svg="http://www.w3.org/2000/svg"
   xmlns="http://www.w3.org/2000/svg"
   xmlns:sodipodi="http://sodipodi.sourceforge.net/DTD/sodipodi-0.dtd"
   xmlns:inkscape="http://www.inkscape.org/namespaces/inkscape"
   width="15.665221mm"
   height="15.64548mm"
   viewBox="0 0 15.665221 15.64548"
   version="1.1"
   id="svg4632"
   inkscape:version="0.92.3 (2405546, 2018-03-11)"
   sodipodi:docname="Joomla-isologo.svg">
  <defs
     id="defs4626" />
  <sodipodi:namedview
     id="base"
     pagecolor="#ffffff"
     bordercolor="#666666"
     borderopacity="1.0"
     inkscape:pageopacity="0.0"
     inkscape:pageshadow="2"
     inkscape:zoom="0.35"
     inkscape:cx="-188.96786"
     inkscape:cy="-167.5766"
     inkscape:document-units="mm"
     inkscape:current-layer="layer1"
     showgrid="false"
     fit-margin-top="0"
     fit-margin-left="0"
     fit-margin-right="0"
     fit-margin-bottom="0"
     inkscape:window-width="1920"
     inkscape:window-height="985"
     inkscape:window-x="0"
     inkscape:window-y="36"
     inkscape:window-maximized="1" />
  <metadata
     id="metadata4629">
    <rdf:RDF>
      <cc:Work
         rdf:about="">
        <dc:format>image/svg+xml</dc:format>
        <dc:type
           rdf:resource="http://purl.org/dc/dcmitype/StillImage" />
        <dc:title></dc:title>
      </cc:Work>
    </rdf:RDF>
  </metadata>
  <g
     inkscape:label="Layer 1"
     inkscape:groupmode="layer"
     id="layer1"
     transform="translate(-26.941199,-88.849879)">
    <g
       transform="matrix(0.26458333,0,0,0.26458333,24.429726,87.974205)"
       id="g4624">
      <path
         style="font-size:14px;font-family:fnt0, HelveticaLTStd, Arial;letter-spacing:0;word-spacing:0;fill:#86be3c;fill-rule:nonzero;stroke:none;stroke-width:1.78638422;stroke-linecap:round;stroke-linejoin:round;stroke-miterlimit:4;stroke-dasharray:none"
         d="M 20.15988,33.145064 19.020989,32.00812 C 15.489611,28.475715 14.396281,23.430447 15.733952,18.957225 12.203593,18.159417 9.5669968,15.00293 9.5669968,11.230471 9.56789,6.8563391 13.113354,3.3096341 17.486779,3.3096341 c 3.937736,0.00179 7.202505,2.8745512 7.816432,6.6378107 4.273004,-1.002108 8.949508,0.1634452 12.281695,3.4956322 l 0.454581,0.454572 -5.845121,5.842057 -0.453554,-0.455599 c -1.895934,-1.894916 -4.970703,-1.894916 -6.868674,0.0018 -1.904107,1.904107 -1.900025,4.988067 -0.01018,6.877865 l 1.14308,1.141035 5.846139,5.840012 6.182211,6.179156 -5.838984,5.844094 -6.189366,-6.181193 -5.84512,-5.842057"
         class="ps01"
         id="path174"
         inkscape:connector-curvature="0" />
      <path
         style="font-size:14px;font-family:fnt0, HelveticaLTStd, Arial;letter-spacing:0;word-spacing:0;fill:#e4b645;fill-rule:nonzero;stroke:none;stroke-width:1.78638422;stroke-linecap:round;stroke-linejoin:round;stroke-miterlimit:4;stroke-dasharray:none"
         d="m 26.697582,26.612471 6.187329,-6.183247 5.846139,-5.838985 1.140008,-1.137971 c 3.518105,-3.5170778 8.531708,-4.6244038 12.987567,-3.315842 0.533226,-3.8562226 3.842941,-6.8267919 7.846263,-6.8267919 4.374132,0 7.921864,3.5446596 7.920837,7.9208369 0,4.019668 -2.996106,7.341637 -6.877865,7.8524 1.275871,4.439513 0.164463,9.417362 -3.330142,12.91503 l -0.455599,0.456618 -5.84103,-5.846139 0.451509,-0.452527 c 1.897979,-1.896961 1.897979,-4.973767 0.0018,-6.869701 -1.890834,-1.888788 -4.95844,-1.89287 -6.862547,0.01018 l -1.140017,1.138989 -5.846138,5.842048 -6.183239,6.177111 -5.84512,-5.842048"
         class="ps09"
         id="path176"
         inkscape:connector-curvature="0" />
      <path
         style="font-size:14px;font-family:fnt0, HelveticaLTStd, Arial;letter-spacing:0;word-spacing:0;fill:#c33734;fill-rule:nonzero;stroke:none;stroke-width:1.78638422;stroke-linecap:round;stroke-linejoin:round;stroke-miterlimit:4;stroke-dasharray:none"
         d="m 53.015934,56.101503 c -4.494668,1.382626 -9.586935,0.295316 -13.144876,-3.262009 l -0.447418,-0.446918 5.840011,-5.846237 0.448445,0.449473 c 1.897971,1.896952 4.974786,1.896952 6.87072,0.0018 1.889798,-1.891843 1.893889,-4.95844 -0.01018,-6.863565 l -1.142053,-1.143081 -5.84103,-5.846138 -6.172002,-6.177111 5.846139,-5.840012 6.166893,6.173029 5.838984,5.844094 1.14819,1.149207 c 3.35976,3.359769 4.520204,8.086328 3.475196,12.385886 3.847032,0.541409 6.806365,3.847032 6.806365,7.843201 0,4.375364 -3.547732,7.9188 -7.919818,7.9188 -3.834778,0 -7.03212,-2.721423 -7.763528,-6.340655"
         class="ps04"
         id="path184"
         inkscape:connector-curvature="0" />
      <path
         style="font-size:14px;font-family:fnt0, HelveticaLTStd, Arial;letter-spacing:0;word-spacing:0;fill:#748ec4;fill-rule:nonzero;stroke:none;stroke-width:1.78638422;stroke-linecap:round;stroke-linejoin:round;stroke-miterlimit:4;stroke-dasharray:none"
         d="m 50.737954,39.683793 -6.165875,6.17302 -5.841029,5.845121 -1.146144,1.145527 c -3.374069,3.375811 -8.132291,4.522973 -12.451259,3.451607 -0.806999,3.519427 -3.957359,6.141035 -7.720726,6.14309 -4.375364,0 -7.9217383,-3.545375 -7.920738,-7.9188 0,-3.744878 2.599654,-6.88502 6.092222,-7.709383 -1.105379,-4.339404 0.03984,-9.13338 3.436584,-12.529922 l 0.446917,-0.445381 5.845523,5.84103 -0.451509,0.448454 c -1.895934,1.89797 -1.895934,4.969676 0.0018,6.869692 1.90308,1.903089 4.98704,1.898998 6.876847,0.008 l 1.144099,-1.146144 5.84103,-5.843067 6.172002,-6.178138 5.840011,5.845121"
         class="ps010"
         id="path186"
         inkscape:connector-curvature="0" />
    </g>
  </g>
</svg>
